<svg width="205" height="32" viewBox="0 0 205 32" fill="none" xmlns="http://www.w3.org/2000/svg">
<path d="M196.734 27.9911C195.105 27.9911 193.679 27.6225 192.457 26.8853C191.234 26.1481 190.284 25.1491 189.605 23.8881C188.926 22.6271 188.586 21.2303 188.586 19.6977C188.586 18.107 188.926 16.7005 189.605 15.4783C190.303 14.2367 191.244 13.2571 192.427 12.5393C193.63 11.8215 194.969 11.4626 196.443 11.4626C197.685 11.4626 198.771 11.6663 199.702 12.0737C200.653 12.4811 201.458 13.0437 202.118 13.7614C202.777 14.4792 203.282 15.3037 203.631 16.2349C203.98 17.1467 204.155 18.1361 204.155 19.2031C204.155 19.4747 204.135 19.7559 204.096 20.0469C204.077 20.3379 204.028 20.5901 203.951 20.8035H191.729V17.8936H201.797L199.993 19.2613C200.168 18.3689 200.119 17.5735 199.848 16.8751C199.596 16.1767 199.169 15.6238 198.567 15.2164C197.985 14.809 197.277 14.6053 196.443 14.6053C195.648 14.6053 194.94 14.809 194.319 15.2164C193.698 15.6044 193.223 16.1864 192.893 16.9624C192.583 17.719 192.466 18.6405 192.544 19.7268C192.466 20.6968 192.592 21.5601 192.922 22.3167C193.271 23.0539 193.776 23.6262 194.435 24.0336C195.114 24.441 195.89 24.6447 196.763 24.6447C197.636 24.6447 198.373 24.4604 198.975 24.0918C199.596 23.7232 200.081 23.2285 200.43 22.6077L203.514 24.1209C203.204 24.8775 202.719 25.5467 202.059 26.1287C201.4 26.7107 200.614 27.1666 199.702 27.4964C198.81 27.8262 197.821 27.9911 196.734 27.9911Z" fill="#100A55"/>
<path d="M177.037 27.9911C175.505 27.9911 174.137 27.6322 172.934 26.9144C171.732 26.1772 170.781 25.1782 170.083 23.9172C169.384 22.6562 169.035 21.2594 169.035 19.7268C169.035 18.1749 169.384 16.7781 170.083 15.5365C170.781 14.2949 171.732 13.3056 172.934 12.5684C174.157 11.8312 175.515 11.4626 177.008 11.4626C178.211 11.4626 179.278 11.7051 180.209 12.1901C181.16 12.6557 181.907 13.3153 182.45 14.1688L181.868 14.9545V5.61359H185.68V27.6419H182.072V24.5865L182.479 25.3431C181.936 26.1966 181.179 26.8562 180.209 27.3218C179.239 27.768 178.182 27.9911 177.037 27.9911ZM177.445 24.4992C178.318 24.4992 179.084 24.2955 179.744 23.8881C180.403 23.4807 180.917 22.9181 181.286 22.2003C181.674 21.4825 181.868 20.658 181.868 19.7268C181.868 18.8151 181.674 18.0003 181.286 17.2825C180.917 16.5453 180.403 15.973 179.744 15.5656C179.084 15.1582 178.318 14.9545 177.445 14.9545C176.591 14.9545 175.825 15.1679 175.146 15.5947C174.467 16.0021 173.933 16.5647 173.546 17.2825C173.177 17.9809 172.993 18.7957 172.993 19.7268C172.993 20.658 173.177 21.4825 173.546 22.2003C173.933 22.9181 174.467 23.4807 175.146 23.8881C175.825 24.2955 176.591 24.4992 177.445 24.4992Z" fill="#100A55"/>
<path d="M158.433 27.9911C156.881 27.9911 155.465 27.6322 154.184 26.9144C152.923 26.1966 151.915 25.217 151.158 23.9754C150.421 22.7338 150.052 21.3176 150.052 19.7268C150.052 18.1361 150.421 16.7199 151.158 15.4783C151.915 14.2367 152.923 13.2571 154.184 12.5393C155.445 11.8215 156.861 11.4626 158.433 11.4626C159.985 11.4626 161.391 11.8215 162.652 12.5393C163.913 13.2571 164.912 14.2367 165.65 15.4783C166.406 16.7005 166.784 18.1167 166.784 19.7268C166.784 21.3176 166.406 22.7338 165.65 23.9754C164.893 25.217 163.884 26.1966 162.623 26.9144C161.362 27.6322 159.965 27.9911 158.433 27.9911ZM158.433 24.4992C159.286 24.4992 160.033 24.2955 160.674 23.8881C161.333 23.4807 161.847 22.9181 162.216 22.2003C162.604 21.4631 162.798 20.6386 162.798 19.7268C162.798 18.7957 162.604 17.9809 162.216 17.2825C161.847 16.5647 161.333 16.0021 160.674 15.5947C160.033 15.1679 159.286 14.9545 158.433 14.9545C157.56 14.9545 156.794 15.1679 156.134 15.5947C155.474 16.0021 154.951 16.5647 154.563 17.2825C154.194 17.9809 154.01 18.7957 154.01 19.7268C154.01 20.6386 154.194 21.4631 154.563 22.2003C154.951 22.9181 155.474 23.4807 156.134 23.8881C156.794 24.2955 157.56 24.4992 158.433 24.4992Z" fill="#100A55"/>
<path d="M140.612 27.9911C139.041 27.9911 137.625 27.6322 136.364 26.9144C135.122 26.1772 134.143 25.1879 133.425 23.9463C132.707 22.6853 132.348 21.2691 132.348 19.6977C132.348 18.1264 132.707 16.7199 133.425 15.4783C134.143 14.2367 135.122 13.2571 136.364 12.5393C137.625 11.8215 139.041 11.4626 140.612 11.4626C141.738 11.4626 142.785 11.6663 143.755 12.0737C144.725 12.4617 145.559 13.0049 146.258 13.7032C146.975 14.3822 147.49 15.197 147.8 16.1476L144.453 17.6026C144.162 16.8072 143.668 16.167 142.969 15.682C142.29 15.197 141.505 14.9545 140.612 14.9545C139.778 14.9545 139.031 15.1582 138.372 15.5656C137.732 15.973 137.227 16.5356 136.859 17.2534C136.49 17.9712 136.306 18.7957 136.306 19.7268C136.306 20.658 136.49 21.4825 136.859 22.2003C137.227 22.9181 137.732 23.4807 138.372 23.8881C139.031 24.2955 139.778 24.4992 140.612 24.4992C141.524 24.4992 142.32 24.2567 142.999 23.7717C143.678 23.2867 144.162 22.6368 144.453 21.822L147.8 23.3352C147.49 24.2276 146.985 25.0327 146.287 25.7504C145.588 26.4488 144.754 27.0017 143.784 27.4091C142.814 27.7971 141.757 27.9911 140.612 27.9911Z" fill="#100A55"/>
<path d="M121.746 27.9911C120.194 27.9911 118.778 27.6322 117.497 26.9144C116.236 26.1966 115.228 25.217 114.471 23.9754C113.734 22.7338 113.365 21.3176 113.365 19.7268C113.365 18.1361 113.734 16.7199 114.471 15.4783C115.228 14.2367 116.236 13.2571 117.497 12.5393C118.758 11.8215 120.174 11.4626 121.746 11.4626C123.298 11.4626 124.704 11.8215 125.965 12.5393C127.226 13.2571 128.225 14.2367 128.963 15.4783C129.719 16.7005 130.097 18.1167 130.097 19.7268C130.097 21.3176 129.719 22.7338 128.963 23.9754C128.206 25.217 127.197 26.1966 125.936 26.9144C124.675 27.6322 123.278 27.9911 121.746 27.9911ZM121.746 24.4992C122.599 24.4992 123.346 24.2955 123.987 23.8881C124.646 23.4807 125.16 22.9181 125.529 22.2003C125.917 21.4631 126.111 20.6386 126.111 19.7268C126.111 18.7957 125.917 17.9809 125.529 17.2825C125.16 16.5647 124.646 16.0021 123.987 15.5947C123.346 15.1679 122.599 14.9545 121.746 14.9545C120.873 14.9545 120.107 15.1679 119.447 15.5947C118.787 16.0021 118.264 16.5647 117.876 17.2825C117.507 17.9809 117.323 18.7957 117.323 19.7268C117.323 20.6386 117.507 21.4631 117.876 22.2003C118.264 22.9181 118.787 23.4807 119.447 23.8881C120.107 24.2955 120.873 24.4992 121.746 24.4992Z" fill="#100A55"/>
<path d="M87.1225 27.6419V11.8118H90.7017V15.4783L90.2943 14.8672C90.5853 13.7226 91.1673 12.8691 92.0403 12.3065C92.9133 11.7439 93.9415 11.4626 95.1248 11.4626C96.4246 11.4626 97.5692 11.8021 98.5586 12.4811C99.548 13.1601 100.188 14.0524 100.479 15.1582L99.4025 15.2455C99.8875 13.9845 100.615 13.0437 101.585 12.4229C102.555 11.7827 103.67 11.4626 104.931 11.4626C106.057 11.4626 107.056 11.7148 107.929 12.2192C108.821 12.7236 109.519 13.4317 110.024 14.3434C110.528 15.2358 110.78 16.2737 110.78 17.4571V27.6419H106.968V18.3592C106.968 17.6608 106.842 17.0594 106.59 16.555C106.338 16.0506 105.989 15.6626 105.542 15.391C105.096 15.1 104.553 14.9545 103.913 14.9545C103.311 14.9545 102.778 15.1 102.312 15.391C101.847 15.6626 101.488 16.0506 101.236 16.555C100.984 17.0594 100.857 17.6608 100.857 18.3592V27.6419H97.0454V18.3592C97.0454 17.6608 96.9193 17.0594 96.6671 16.555C96.4149 16.0506 96.056 15.6626 95.5904 15.391C95.1442 15.1 94.6107 14.9545 93.99 14.9545C93.3886 14.9545 92.8551 15.1 92.3895 15.391C91.9239 15.6626 91.565 16.0506 91.3128 16.555C91.0606 17.0594 90.9345 17.6608 90.9345 18.3592V27.6419H87.1225Z" fill="#100A55"/>
<path d="M76.8124 27.9911C75.1828 27.9911 73.7569 27.6225 72.5347 26.8853C71.3125 26.1481 70.362 25.1491 69.683 23.8881C69.004 22.6271 68.6645 21.2303 68.6645 19.6977C68.6645 18.107 69.004 16.7005 69.683 15.4783C70.3814 14.2367 71.3222 13.2571 72.5056 12.5393C73.7084 11.8215 75.047 11.4626 76.5214 11.4626C77.7629 11.4626 78.8493 11.6663 79.7805 12.0737C80.7311 12.4811 81.5362 13.0437 82.1958 13.7614C82.8554 14.4792 83.3597 15.3037 83.7089 16.2349C84.0581 17.1467 84.2327 18.1361 84.2327 19.2031C84.2327 19.4747 84.2133 19.7559 84.1745 20.0469C84.1551 20.3379 84.1066 20.5901 84.029 20.8035H71.8072V17.8936H81.8757L80.0715 19.2613C80.2461 18.3689 80.1976 17.5735 79.926 16.8751C79.6738 16.1767 79.247 15.6238 78.6456 15.2164C78.0636 14.809 77.3555 14.6053 76.5214 14.6053C75.726 14.6053 75.0179 14.809 74.3971 15.2164C73.7763 15.6044 73.301 16.1864 72.9712 16.9624C72.6608 17.719 72.5444 18.6405 72.622 19.7268C72.5444 20.6968 72.6705 21.5601 73.0003 22.3167C73.3495 23.0539 73.8539 23.6262 74.5135 24.0336C75.1925 24.441 75.9685 24.6447 76.8415 24.6447C77.7144 24.6447 78.4516 24.4604 79.053 24.0918C79.6738 23.7232 80.1588 23.2285 80.508 22.6077L83.5925 24.1209C83.2821 24.8775 82.7972 25.5467 82.1376 26.1287C81.478 26.7107 80.6923 27.1666 79.7805 27.4964C78.8881 27.8262 77.8987 27.9911 76.8124 27.9911Z" fill="#100A55"/>
<path d="M48.0843 27.6419V5.96277H55.1555C57.4447 5.96277 59.4331 6.42836 61.1209 7.35955C62.8281 8.27133 64.1473 9.54201 65.0784 11.1716C66.0096 12.7818 66.4752 14.6538 66.4752 16.7878C66.4752 18.9024 66.0096 20.7841 65.0784 22.4331C64.1473 24.0627 62.8281 25.343 61.1209 26.2742C59.4331 27.186 57.4447 27.6419 55.1555 27.6419H48.0843ZM52.0419 24.15H55.2428C56.7172 24.15 57.9879 23.8493 59.0548 23.2479C60.1412 22.6271 60.9851 21.7735 61.5865 20.6871C62.1879 19.5813 62.4886 18.2816 62.4886 16.7878C62.4886 15.2746 62.1879 13.9748 61.5865 12.8885C60.9851 11.8021 60.1412 10.9582 59.0548 10.3568C57.9879 9.75541 56.7172 9.45471 55.2428 9.45471H52.0419V24.15Z" fill="#100A55"/>
<path d="M24.8525 -0.00942993H8.84776C4.42818 -0.00942993 0.845398 3.57335 0.845398 7.99294V23.9977C0.845398 28.4172 4.42818 32 8.84776 32H24.8525C29.2721 32 32.8549 28.4172 32.8549 23.9977V7.99294C32.8549 3.57335 29.2721 -0.00942993 24.8525 -0.00942993Z" fill="url(#paint0_linear_1_2483)"/>
<path opacity="0.9" d="M12.0487 20.3966C11.8911 20.3967 11.7349 20.3657 11.5893 20.3054C11.4436 20.2451 11.3112 20.1567 11.1997 20.0453L7.99873 16.8443C7.88718 16.7329 7.7987 16.6005 7.73833 16.4548C7.67796 16.3091 7.64688 16.153 7.64688 15.9953C7.64688 15.8376 7.67796 15.6814 7.73833 15.5357C7.7987 15.3901 7.88718 15.2577 7.99873 15.1462L11.1997 11.9453C11.4249 11.7201 11.7303 11.5936 12.0487 11.5936C12.3672 11.5936 12.6726 11.7201 12.8978 11.9453C13.123 12.1705 13.2495 12.4759 13.2495 12.7943C13.2495 13.1128 13.123 13.4182 12.8978 13.6434L10.5451 15.9953L12.8978 18.3472C13.0658 18.5151 13.1802 18.729 13.2265 18.9619C13.2729 19.1948 13.2491 19.4363 13.1582 19.6557C13.0673 19.8751 12.9134 20.0626 12.7159 20.1945C12.5184 20.3264 12.2862 20.3967 12.0487 20.3966ZM21.6516 20.3966C21.4141 20.3967 21.1819 20.3264 20.9844 20.1945C20.7869 20.0626 20.633 19.8751 20.5421 19.6557C20.4512 19.4363 20.4274 19.1948 20.4738 18.9619C20.5201 18.729 20.6345 18.5151 20.8025 18.3472L23.1552 15.9953L20.8025 13.6434C20.691 13.5319 20.6026 13.3995 20.5422 13.2538C20.4819 13.1082 20.4508 12.952 20.4508 12.7943C20.4508 12.6367 20.4819 12.4805 20.5422 12.3348C20.6026 12.1892 20.691 12.0568 20.8025 11.9453C21.0277 11.7201 21.3331 11.5936 21.6516 11.5936C21.8092 11.5936 21.9654 11.6247 22.1111 11.685C22.2567 11.7453 22.3891 11.8338 22.5006 11.9453L25.7016 15.1462C25.8131 15.2577 25.9016 15.3901 25.962 15.5357C26.0223 15.6814 26.0534 15.8376 26.0534 15.9953C26.0534 16.153 26.0223 16.3091 25.962 16.4548C25.9016 16.6005 25.8131 16.7329 25.7016 16.8443L22.5006 20.0453C22.3891 20.1567 22.2567 20.2451 22.111 20.3054C21.9654 20.3657 21.8092 20.3967 21.6516 20.3966Z" fill="white"/>
<path opacity="0.5" d="M15.2497 22.7973C15.1379 22.7972 15.0267 22.7815 14.9192 22.7509C14.6132 22.6634 14.3544 22.458 14.1999 22.1797C14.0453 21.9015 14.0075 21.5733 14.0949 21.2673L17.2959 10.064C17.3367 9.90961 17.4078 9.76496 17.5052 9.63845C17.6026 9.51195 17.7242 9.40615 17.863 9.32723C18.0018 9.24831 18.1549 9.19787 18.3134 9.17886C18.4719 9.15985 18.6326 9.17265 18.7861 9.2165C18.9396 9.26036 19.0828 9.3344 19.2074 9.43428C19.3319 9.53416 19.4353 9.65789 19.5114 9.79821C19.5876 9.93852 19.6349 10.0926 19.6508 10.2515C19.6666 10.4103 19.6507 10.5708 19.6037 10.7234L16.4028 21.9267C16.3312 22.1773 16.1799 22.3979 15.9719 22.5549C15.7639 22.712 15.5103 22.7971 15.2497 22.7973Z" fill="white"/>
<defs>
<linearGradient id="paint0_linear_1_2483" x1="4.53369" y1="3.67886" x2="30.1493" y2="29.2944" gradientUnits="userSpaceOnUse">
<stop stop-color="#9B8DFF"/>
<stop offset="0.252" stop-color="#7D79FD"/>
<stop offset="0.555" stop-color="#5F65FB"/>
<stop offset="0.815" stop-color="#4D58F9"/>
<stop offset="1" stop-color="#4654F9"/>
</linearGradient>
</defs>
</svg>
